<?xml version="1.0" ?><svg id="Layer_1" style="enable-background:new 0 0 512 512;" version="1.1" viewBox="0 0 512 512" xml:space="preserve" xmlns="http://www.w3.org/2000/svg" xmlns:xlink="http://www.w3.org/1999/xlink"><style type="text/css">
	.st0{fill:#38556D;}
	.st1{fill:#102535;}
	.st2{fill:#07D8C9;}
	.st3{fill:#006D6A;}
	.st4{fill:#FFD400;}
	.st5{fill:#EF9900;}
	.st6{fill:#EF7875;}
	.st7{fill:#D22D33;}
	.st8{fill:#FFFFFF;}
</style><g id="XMLID_659_"><rect class="st0" height="52.4" id="XMLID_661_" width="109.6" x="6" y="185.8"/><polygon class="st1" id="XMLID_660_" points="182.2,169.8 115.6,238.2 115.6,185.8 182.2,117.4  "/><rect class="st2" height="52.4" id="XMLID_619_" width="109.6" x="6" y="238"/><polygon class="st3" id="XMLID_614_" points="182.2,222 115.6,290.4 115.6,238 182.2,169.6  "/><rect class="st4" height="52.4" id="XMLID_569_" width="109.6" x="6" y="290.2"/><polygon class="st5" id="XMLID_568_" points="182.2,274.1 115.6,342.6 115.6,290.2 182.2,221.7  "/><rect class="st6" height="52.4" id="XMLID_567_" width="109.6" x="6" y="342.3"/><polygon class="st0" id="XMLID_658_" points="413.9,169.7 182.2,169.7 182.2,117.3 413.9,117.3 443.1,143.5  "/><polygon class="st2" id="XMLID_657_" points="364.7,221.8 182.2,221.8 182.2,169.4 364.7,169.4 394,195.6  "/><polygon class="st4" id="XMLID_656_" points="319.1,274 182.2,274 182.2,221.6 319.1,221.6 348.3,247.8  "/><polygon class="st6" id="XMLID_647_" points="268.2,326.2 182.2,326.2 182.2,273.8 268.2,273.8 297.4,300  "/><polygon class="st7" id="XMLID_56_" points="182.2,326.3 115.6,394.7 115.6,342.3 182.2,273.9  "/><g id="XMLID_1504_"><path class="st0" d="M447.5,136.3h11.4c-2.1,2.4-3.8,4.8-4.9,7.3c-1.1,2.5-1.7,5.3-1.7,8.4v3h5.3v-3    c0-3.1,0.4-5.8,1.3-8.1c0.9-2.3,2.5-4.9,5-7.6v-4.1h-16.5V136.3z" id="XMLID_1505_"/><path class="st0" d="M475.8,140c-0.8,0-1.5,0.1-2.2,0.3c-0.7,0.2-1.2,0.4-1.6,0.7l0.6-4.7h9v-4.1h-13.3    l-1.3,12.8l4.7,0.3c0.2-0.5,0.5-0.8,0.9-1.1c0.4-0.3,1-0.5,1.7-0.5c1,0,1.7,0.4,2.1,1.1c0.4,0.7,0.7,1.7,0.7,3    c0,1.2-0.2,2.1-0.6,2.7c-0.4,0.6-1.1,0.9-2,0.9c-0.8,0-1.5-0.2-2-0.7c-0.5-0.5-0.8-1.1-0.8-1.9l-5.2,0.3l0,0.1    c-0.1,1.9,0.7,3.4,2.3,4.5c1.6,1.1,3.5,1.7,5.6,1.7c2.7,0,4.7-0.7,6-2.2c1.3-1.5,1.9-3.3,1.9-5.5c0-2.5-0.6-4.4-1.7-5.7    C479.6,140.6,477.9,139.9,475.8,140z" id="XMLID_2153_"/><polygon class="st0" id="XMLID_2265_" points="499.5,134.2 488.4,152 490.9,153.2 502,135.5   "/><path class="st0" d="M493.9,141.1c0.9-0.9,1.3-2,1.3-3.4v-1.2c0-1.4-0.4-2.5-1.3-3.4s-2.1-1.3-3.8-1.3    c-1.6,0-2.9,0.4-3.7,1.3s-1.3,2-1.3,3.4v1.2c0,1.3,0.4,2.5,1.3,3.3c0.9,0.9,2.1,1.3,3.8,1.3C491.8,142.4,493,142,493.9,141.1z     M488.4,137.8v-1.2c0-0.5,0.1-1,0.4-1.3c0.3-0.4,0.7-0.5,1.2-0.5c0.5,0,1,0.2,1.3,0.5c0.3,0.4,0.4,0.8,0.4,1.3v1.2    c0,0.5-0.1,1-0.4,1.3c-0.3,0.3-0.7,0.5-1.2,0.5c-0.6,0-1-0.2-1.3-0.5C488.6,138.7,488.4,138.3,488.4,137.8z" id="XMLID_2270_"/><path class="st0" d="M504.7,146c-0.9-0.9-2.1-1.3-3.8-1.3c-1.6,0-2.9,0.4-3.8,1.3c-0.9,0.9-1.3,2-1.3,3.4v1.2    c0,1.4,0.4,2.5,1.3,3.4c0.9,0.9,2.1,1.3,3.8,1.3c1.6,0,2.9-0.4,3.7-1.3c0.9-0.9,1.3-2,1.3-3.4v-1.2C506,148,505.6,146.9,504.7,146    z M502.6,150.6c0,0.6-0.1,1-0.3,1.4c-0.2,0.3-0.7,0.5-1.3,0.5c-0.5,0-0.9-0.2-1.2-0.5c-0.3-0.4-0.5-0.8-0.5-1.3v-1.2    c0-0.5,0.1-0.9,0.4-1.3c0.3-0.4,0.7-0.5,1.3-0.5c0.5,0,0.9,0.2,1.2,0.5c0.3,0.4,0.4,0.8,0.4,1.3V150.6z" id="XMLID_2273_"/></g><g id="XMLID_18_"><path class="st2" d="M410.2,192.6c-0.8,0-1.5,0.1-2.2,0.3c-0.7,0.2-1.2,0.4-1.6,0.7l0.6-4.8h9.1v-4.1h-13.5    l-1.3,12.9l4.8,0.3c0.2-0.5,0.5-0.8,0.9-1.2c0.4-0.3,1-0.5,1.7-0.5c1,0,1.7,0.4,2.1,1.1c0.5,0.7,0.7,1.7,0.7,3    c0,1.2-0.2,2.1-0.6,2.7c-0.4,0.6-1.1,0.9-2.1,0.9c-0.8,0-1.5-0.2-2-0.7c-0.5-0.5-0.8-1.1-0.8-1.9l-5.2,0.3l0,0.1    c-0.1,1.9,0.7,3.4,2.3,4.6c1.6,1.2,3.5,1.7,5.7,1.7c2.8,0,4.8-0.7,6.1-2.2c1.3-1.5,1.9-3.3,1.9-5.5c0-2.5-0.6-4.4-1.7-5.7    C414,193.2,412.3,192.5,410.2,192.6z" id="XMLID_52_"/><path class="st2" d="M428.9,192.6c-0.8,0-1.5,0.1-2.2,0.3c-0.7,0.2-1.2,0.4-1.6,0.7l0.6-4.8h9.1v-4.1h-13.5    l-1.3,12.9l4.8,0.3c0.2-0.5,0.5-0.8,0.9-1.2c0.4-0.3,1-0.5,1.7-0.5c1,0,1.7,0.4,2.1,1.1c0.5,0.7,0.7,1.7,0.7,3    c0,1.2-0.2,2.1-0.6,2.7c-0.4,0.6-1.1,0.9-2.1,0.9c-0.8,0-1.5-0.2-2-0.7c-0.5-0.5-0.8-1.1-0.8-1.9l-5.2,0.3l0,0.1    c-0.1,1.9,0.7,3.4,2.3,4.6c1.6,1.2,3.5,1.7,5.7,1.7c2.8,0,4.8-0.7,6.1-2.2c1.3-1.5,1.9-3.3,1.9-5.5c0-2.5-0.6-4.4-1.7-5.7    C432.7,193.2,431,192.5,428.9,192.6z" id="XMLID_2258_"/><path class="st2" d="M447.1,193.7c0.9-0.9,1.3-2,1.3-3.4v-1.2c0-1.4-0.4-2.5-1.3-3.4s-2.1-1.3-3.8-1.3    c-1.6,0-2.9,0.4-3.8,1.3c-0.9,0.9-1.3,2-1.3,3.4v1.2c0,1.4,0.4,2.5,1.3,3.4c0.9,0.9,2.2,1.3,3.8,1.3    C445,195.1,446.2,194.6,447.1,193.7z M441.6,190.4v-1.2c0-0.5,0.1-1,0.4-1.3c0.3-0.4,0.7-0.5,1.2-0.5c0.5,0,1,0.2,1.3,0.5    c0.3,0.4,0.4,0.8,0.4,1.3v1.2c0,0.5-0.1,1-0.4,1.3c-0.3,0.4-0.7,0.5-1.2,0.5c-0.6,0-1-0.2-1.3-0.5    C441.8,191.3,441.6,190.9,441.6,190.4z" id="XMLID_2261_"/><polygon class="st2" id="XMLID_2262_" points="452.8,186.8 441.6,204.7 444.1,206 455.3,188   "/><path class="st2" d="M458.1,198.7c-0.9-0.9-2.1-1.3-3.8-1.3c-1.6,0-2.9,0.4-3.8,1.3c-0.9,0.9-1.3,2-1.3,3.4v1.2    c0,1.4,0.4,2.5,1.3,3.4c0.9,0.9,2.2,1.3,3.8,1.3c1.6,0,2.9-0.4,3.8-1.3c0.9-0.9,1.3-2,1.3-3.4v-1.2    C459.4,200.7,458.9,199.6,458.1,198.7z M456,203.3c0,0.6-0.1,1-0.3,1.4c-0.2,0.3-0.7,0.5-1.3,0.5c-0.5,0-0.9-0.2-1.2-0.6    c-0.3-0.4-0.5-0.8-0.5-1.3v-1.2c0-0.5,0.1-1,0.4-1.3c0.3-0.4,0.7-0.5,1.3-0.5c0.5,0,1,0.2,1.3,0.5s0.4,0.8,0.4,1.3V203.3z" id="XMLID_2269_"/></g><g id="XMLID_1613_"><path class="st4" d="M367,248.6c1.1-0.5,1.9-1.2,2.6-2.1c0.6-0.9,0.9-1.8,0.9-2.9c0-2.1-0.7-3.7-2.2-4.8    c-1.5-1.1-3.5-1.7-6-1.7c-2.1,0-3.9,0.6-5.4,1.7c-1.5,1.1-2.2,2.6-2.1,4.4l0,0.1h5.2c0-0.6,0.2-1.2,0.7-1.5c0.5-0.4,1-0.6,1.7-0.6    c0.9,0,1.6,0.2,2.1,0.7c0.5,0.5,0.8,1.1,0.8,1.8c0,0.9-0.3,1.6-0.8,2.1c-0.5,0.5-1.2,0.8-2.2,0.8h-2.5v3.9h2.5    c1.1,0,1.9,0.3,2.5,0.8c0.6,0.5,0.9,1.3,0.9,2.4c0,0.8-0.3,1.4-0.9,2c-0.6,0.5-1.4,0.8-2.3,0.8c-0.8,0-1.5-0.2-2-0.7    c-0.5-0.5-0.8-1.1-0.8-1.9h-5.2l0,0.1c-0.1,2.1,0.7,3.8,2.3,4.9c1.6,1.1,3.5,1.7,5.6,1.7c2.5,0,4.5-0.6,6.1-1.8    c1.6-1.2,2.4-2.8,2.4-4.9c0-1.3-0.3-2.4-1-3.3C369.2,249.7,368.2,249.1,367,248.6z" id="XMLID_1614_"/><path class="st4" d="M382.5,245.3c-0.8,0-1.5,0.1-2.2,0.3c-0.7,0.2-1.2,0.4-1.6,0.7l0.6-4.8h9.1v-4.1H375    l-1.3,12.8l4.8,0.3c0.2-0.5,0.5-0.8,0.9-1.1c0.4-0.3,1-0.5,1.7-0.5c1,0,1.7,0.4,2.1,1.1c0.5,0.7,0.7,1.7,0.7,3    c0,1.2-0.2,2.1-0.6,2.7c-0.4,0.6-1.1,0.9-2.1,0.9c-0.8,0-1.5-0.2-2-0.7c-0.5-0.5-0.8-1.1-0.8-1.9l-5.2,0.3l0,0.1    c-0.1,1.9,0.7,3.4,2.3,4.5c1.6,1.1,3.5,1.7,5.7,1.7c2.7,0,4.8-0.7,6-2.2c1.3-1.5,1.9-3.3,1.9-5.5c0-2.5-0.6-4.4-1.7-5.7    C386.3,245.9,384.7,245.3,382.5,245.3z" id="XMLID_1621_"/><polygon class="st4" id="XMLID_2149_" points="406.4,239.5 395.2,257.4 397.7,258.6 408.8,240.8   "/><path class="st4" d="M400.7,246.5c0.9-0.9,1.3-2,1.3-3.4v-1.2c0-1.4-0.4-2.5-1.3-3.4s-2.1-1.3-3.8-1.3    c-1.6,0-2.9,0.4-3.8,1.3s-1.3,2-1.3,3.4v1.2c0,1.4,0.4,2.5,1.3,3.4c0.9,0.9,2.1,1.3,3.8,1.3C398.6,247.8,399.8,247.4,400.7,246.5z     M395.2,243.1v-1.2c0-0.5,0.1-1,0.4-1.3c0.3-0.4,0.7-0.5,1.2-0.5c0.5,0,1,0.2,1.3,0.5c0.3,0.4,0.4,0.8,0.4,1.3v1.2    c0,0.5-0.1,1-0.4,1.3c-0.3,0.4-0.7,0.5-1.2,0.5c-0.6,0-1-0.2-1.3-0.5C395.4,244.1,395.2,243.6,395.2,243.1z" id="XMLID_2251_"/><path class="st4" d="M411.6,251.4c-0.9-0.9-2.1-1.3-3.8-1.3c-1.6,0-2.9,0.4-3.8,1.3c-0.9,0.9-1.3,2-1.3,3.4v1.2    c0,1.4,0.4,2.5,1.3,3.4c0.9,0.9,2.2,1.3,3.8,1.3c1.6,0,2.9-0.4,3.7-1.3c0.9-0.9,1.3-2,1.3-3.4v-1.2    C412.9,253.4,412.4,252.3,411.6,251.4z M409.5,256c0,0.6-0.1,1-0.3,1.4c-0.2,0.3-0.7,0.5-1.3,0.5c-0.5,0-0.9-0.2-1.2-0.5    c-0.3-0.4-0.5-0.8-0.5-1.3v-1.2c0-0.5,0.1-1,0.4-1.3c0.3-0.4,0.7-0.5,1.3-0.5c0.5,0,1,0.2,1.2,0.5s0.4,0.8,0.4,1.3V256z" id="XMLID_2319_"/></g><g id="XMLID_1540_"><polygon class="st6" id="XMLID_1549_" points="305.6,292.9 310.4,292.9 310.4,311.9 315.9,311.9 315.9,287.8 305.6,288.7   "/><path class="st6" d="M332.7,296.3c-0.8,0-1.6,0.1-2.3,0.3c-0.7,0.2-1.3,0.5-1.7,0.8l0.6-4.9h9.4v-4.3h-13.9    l-1.4,13.3l4.9,0.3c0.2-0.5,0.5-0.9,0.9-1.2c0.5-0.3,1-0.5,1.8-0.5c1,0,1.7,0.4,2.2,1.1c0.5,0.7,0.7,1.8,0.7,3.1    c0,1.2-0.2,2.2-0.6,2.8c-0.4,0.6-1.1,0.9-2.1,0.9c-0.9,0-1.6-0.2-2.1-0.7c-0.5-0.5-0.8-1.1-0.8-2l-5.4,0.3l0,0.1    c-0.1,2,0.7,3.5,2.4,4.7c1.7,1.2,3.6,1.8,5.9,1.8c2.8,0,4.9-0.8,6.3-2.3c1.3-1.5,2-3.4,2-5.7c0-2.6-0.6-4.5-1.8-5.9    C336.6,296.9,334.9,296.2,332.7,296.3z" id="XMLID_1617_"/><path class="st6" d="M351.5,297.5c0.9-0.9,1.4-2.1,1.4-3.5v-1.3c0-1.4-0.5-2.6-1.4-3.5c-0.9-0.9-2.2-1.4-3.9-1.4    c-1.7,0-3,0.5-3.9,1.4c-0.9,0.9-1.4,2.1-1.4,3.5v1.3c0,1.4,0.5,2.6,1.4,3.5c0.9,0.9,2.2,1.4,3.9,1.4    C349.3,298.9,350.6,298.4,351.5,297.5z M345.8,294v-1.3c0-0.5,0.2-1,0.5-1.4c0.3-0.4,0.7-0.6,1.3-0.6c0.6,0,1,0.2,1.3,0.6    c0.3,0.4,0.5,0.8,0.5,1.4v1.3c0,0.5-0.1,1-0.4,1.4c-0.3,0.4-0.7,0.5-1.3,0.5c-0.6,0-1-0.2-1.3-0.5C346,295,345.8,294.5,345.8,294z    " id="XMLID_2321_"/><path class="st6" d="M362.8,302.6c-0.9-0.9-2.2-1.4-3.9-1.4c-1.7,0-3,0.5-3.9,1.4c-0.9,0.9-1.4,2.1-1.4,3.5v1.3    c0,1.4,0.5,2.6,1.4,3.5c0.9,0.9,2.2,1.4,3.9,1.4c1.7,0,3-0.5,3.9-1.4c0.9-0.9,1.4-2.1,1.4-3.5v-1.3    C364.1,304.7,363.7,303.5,362.8,302.6z M360.6,307.3c0,0.6-0.1,1.1-0.4,1.4c-0.2,0.3-0.7,0.5-1.4,0.5c-0.5,0-0.9-0.2-1.3-0.6    c-0.3-0.4-0.5-0.8-0.5-1.4v-1.3c0-0.5,0.2-1,0.5-1.4c0.3-0.4,0.7-0.6,1.3-0.6c0.6,0,1,0.2,1.3,0.6c0.3,0.4,0.5,0.8,0.5,1.4V307.3z    " id="XMLID_2324_"/><polygon class="st6" id="XMLID_2325_" points="357.4,290.3 345.8,308.8 348.3,310.1 359.9,291.6   "/></g><g id="XMLID_54_"><g id="XMLID_1506_"><path class="st8" d="M35,221.6l2.2-2.7c1.6-1.8,2.7-3.1,3.3-4c0.6-0.9,0.9-1.9,0.9-3.1c0-1.7-0.5-3.1-1.6-4.1     c-1.1-1-2.7-1.5-4.7-1.5c-1.9,0-3.5,0.6-4.6,1.8c-1.2,1.2-1.7,2.6-1.7,4.3l0,0.1H33c0-0.8,0.2-1.5,0.6-2.1     c0.4-0.5,0.9-0.8,1.6-0.8c0.7,0,1.2,0.2,1.5,0.6c0.3,0.4,0.5,1,0.5,1.7c0,0.5-0.2,1.1-0.5,1.8c-0.4,0.7-0.9,1.4-1.7,2.3l-5.7,6.2     v2.8h12.8v-3.3L35,221.6L35,221.6z" id="XMLID_1507_"/><path class="st8" d="M50.6,206.2c-1.9,0-3.5,0.6-4.7,1.9c-1.2,1.2-1.8,3-1.8,5.2v4.9c0,2.2,0.6,3.9,1.8,5.2     s2.7,1.9,4.7,1.9c1.9,0,3.5-0.6,4.7-1.9c1.2-1.2,1.8-3,1.8-5.2v-4.9c0-2.2-0.6-3.9-1.8-5.2C54,206.8,52.5,206.2,50.6,206.2z      M52.7,218.4c0,1.2-0.2,2-0.6,2.6c-0.4,0.6-0.9,0.9-1.6,0.9c-0.7,0-1.2-0.3-1.6-0.9c-0.4-0.6-0.6-1.5-0.6-2.6V213     c0-1.1,0.2-2,0.6-2.6c0.4-0.6,0.9-0.9,1.6-0.9c0.7,0,1.2,0.3,1.6,0.9c0.4,0.6,0.6,1.5,0.6,2.6V218.4z" id="XMLID_1571_"/><polygon class="st8" id="XMLID_1572_" points="60.7,210.2 64.4,210.2 64.4,225 68.7,225 68.7,206.2 60.7,206.9    "/><path class="st8" d="M86,214.5c-0.9-1.2-2.1-1.7-3.7-1.7c-0.9,0-1.6,0.1-2.3,0.4c-0.7,0.3-1.2,0.6-1.7,1.1V214     c0-1.5,0.3-2.6,1-3.3s1.5-1.1,2.5-1.1c0.6,0,1.1,0,1.5,0.1c0.4,0.1,0.9,0.2,1.5,0.4l0.7-3.1c-0.7-0.3-1.3-0.5-1.9-0.6     c-0.6-0.1-1.2-0.2-1.9-0.2c-2.3,0-4.1,0.7-5.6,2.1s-2.2,3.3-2.2,5.7v3.7c0,2.3,0.6,4.1,1.9,5.5c1.2,1.3,2.9,2,4.9,2     c1.9,0,3.4-0.6,4.7-1.8s1.8-2.7,1.8-4.5C87.3,217.1,86.9,215.6,86,214.5z M82.4,221.1c-0.4,0.6-0.9,0.9-1.6,0.9     c-0.8,0-1.4-0.4-1.9-1.1c-0.4-0.7-0.7-1.7-0.7-3.1V217c0.2-0.3,0.6-0.5,1-0.7c0.4-0.2,1-0.2,1.6-0.2c0.6,0,1.1,0.3,1.5,0.8     c0.4,0.5,0.6,1.2,0.6,2.2C83,219.8,82.8,220.5,82.4,221.1z" id="XMLID_1575_"/></g><g id="XMLID_16_"><path class="st8" d="M35,272.9l2.3-2.7c1.6-1.8,2.7-3.1,3.4-4c0.6-0.9,0.9-1.9,0.9-3.1c0-1.7-0.6-3.1-1.7-4.1     c-1.1-1-2.7-1.5-4.7-1.5c-1.9,0-3.5,0.6-4.7,1.8c-1.2,1.2-1.7,2.6-1.7,4.4l0,0.1h4.2c0-0.8,0.2-1.5,0.6-2.1     c0.4-0.5,0.9-0.8,1.6-0.8c0.7,0,1.2,0.2,1.6,0.6c0.3,0.4,0.5,1,0.5,1.7c0,0.5-0.2,1.1-0.5,1.8c-0.4,0.7-0.9,1.5-1.7,2.3l-5.7,6.3     v2.8h12.9v-3.3L35,272.9L35,272.9z" id="XMLID_1451_"/><path class="st8" d="M50.6,257.5c-1.9,0-3.5,0.6-4.7,1.9c-1.2,1.3-1.8,3-1.8,5.2v4.9c0,2.2,0.6,3.9,1.8,5.2     c1.2,1.3,2.7,1.9,4.7,1.9c1.9,0,3.5-0.6,4.7-1.9c1.2-1.3,1.8-3,1.8-5.2v-4.9c0-2.2-0.6-3.9-1.8-5.2     C54.1,258.1,52.5,257.5,50.6,257.5z M52.8,269.7c0,1.2-0.2,2-0.6,2.6c-0.4,0.6-0.9,0.9-1.6,0.9c-0.7,0-1.2-0.3-1.6-0.9     c-0.4-0.6-0.6-1.5-0.6-2.6v-5.5c0-1.1,0.2-2,0.6-2.6c0.4-0.6,0.9-0.9,1.6-0.9c0.7,0,1.2,0.3,1.6,0.9c0.4,0.6,0.6,1.5,0.6,2.6     V269.7z" id="XMLID_1519_"/><polygon class="st8" id="XMLID_1526_" points="60.8,261.4 64.5,261.4 64.5,276.3 68.8,276.3 68.8,257.5 60.8,258.1    "/><path class="st8" d="M85.9,265.7c-0.9-1.1-2.3-1.6-4-1.6c-0.6,0-1.2,0.1-1.8,0.3c-0.5,0.2-1,0.4-1.3,0.6     l0.5-3.9h7.4v-3.3H75.9l-1.1,10.4l3.9,0.2c0.1-0.4,0.4-0.7,0.7-0.9c0.4-0.2,0.8-0.4,1.4-0.4c0.8,0,1.4,0.3,1.7,0.9     c0.4,0.6,0.5,1.4,0.5,2.4c0,1-0.2,1.7-0.5,2.2c-0.3,0.5-0.9,0.7-1.7,0.7c-0.7,0-1.2-0.2-1.6-0.6c-0.4-0.4-0.6-0.9-0.6-1.5     l-4.2,0.3l0,0.1c-0.1,1.5,0.6,2.8,1.9,3.7c1.3,0.9,2.8,1.4,4.6,1.4c2.2,0,3.8-0.6,4.9-1.8s1.6-2.7,1.6-4.5     C87.3,268.3,86.9,266.7,85.9,265.7z" id="XMLID_1527_"/></g><g id="XMLID_1508_"><path class="st8" d="M35,324.1l2.2-2.7c1.6-1.8,2.7-3.1,3.3-4c0.6-0.9,0.9-1.9,0.9-3.1c0-1.7-0.5-3.1-1.6-4.1     c-1.1-1-2.7-1.5-4.7-1.5c-1.9,0-3.5,0.6-4.6,1.8c-1.2,1.2-1.7,2.6-1.7,4.3l0,0.1H33c0-0.8,0.2-1.5,0.6-2.1s0.9-0.8,1.5-0.8     c0.7,0,1.2,0.2,1.5,0.6c0.3,0.4,0.5,1,0.5,1.7c0,0.5-0.2,1.1-0.5,1.8c-0.4,0.7-0.9,1.4-1.7,2.3l-5.7,6.2v2.8h12.8v-3.3L35,324.1     L35,324.1z" id="XMLID_1510_"/><path class="st8" d="M50.5,308.8c-1.9,0-3.5,0.6-4.7,1.9c-1.2,1.2-1.7,3-1.7,5.2v4.9c0,2.2,0.6,3.9,1.8,5.2     c1.2,1.2,2.7,1.9,4.7,1.9c1.9,0,3.5-0.6,4.6-1.9c1.2-1.2,1.8-3,1.8-5.2v-4.9c0-2.2-0.6-3.9-1.8-5.2     C54,309.4,52.4,308.8,50.5,308.8z M52.7,321c0,1.1-0.2,2-0.6,2.6c-0.4,0.6-0.9,0.9-1.6,0.9c-0.7,0-1.2-0.3-1.6-0.9     c-0.4-0.6-0.6-1.5-0.6-2.6v-5.4c0-1.1,0.2-2,0.6-2.6c0.4-0.6,0.9-0.9,1.6-0.9c0.7,0,1.2,0.3,1.6,0.9c0.4,0.6,0.6,1.4,0.6,2.6V321     z" id="XMLID_1544_"/><polygon class="st8" id="XMLID_1545_" points="60.6,312.7 64.3,312.7 64.3,327.5 68.6,327.5 68.6,308.8 60.6,309.4    "/><path class="st8" d="M85.5,320.3v-11.2h-4.3v0L73.6,321l0.3,2.6h7.3v3.9h4.3v-3.9h1.9v-3.3H85.5z M81.2,320.3     h-3.9l3.4-4.8l0.5-0.9l0.1,0V320.3z" id="XMLID_1548_"/></g><g id="XMLID_1515_"><path class="st8" d="M35,375.4l2.2-2.7c1.6-1.8,2.7-3.1,3.3-4c0.6-0.9,0.9-1.9,0.9-3.1c0-1.7-0.5-3.1-1.6-4.1     c-1.1-1-2.7-1.5-4.7-1.5c-1.9,0-3.5,0.6-4.6,1.8c-1.2,1.2-1.7,2.6-1.7,4.3l0,0.1H33c0-0.8,0.2-1.5,0.6-2.1     c0.4-0.5,0.9-0.8,1.6-0.8c0.7,0,1.2,0.2,1.5,0.6c0.3,0.4,0.5,1,0.5,1.7c0,0.5-0.2,1.1-0.5,1.8c-0.4,0.7-0.9,1.4-1.7,2.3l-5.7,6.2     v2.8h12.8v-3.3L35,375.4L35,375.4z" id="XMLID_1518_"/><path class="st8" d="M50.5,360c-1.9,0-3.5,0.6-4.7,1.9c-1.2,1.2-1.7,3-1.7,5.2v4.9c0,2.2,0.6,3.9,1.8,5.2     c1.2,1.2,2.7,1.9,4.7,1.9c1.9,0,3.5-0.6,4.6-1.9c1.2-1.2,1.8-3,1.8-5.2v-4.9c0-2.2-0.6-3.9-1.8-5.2C54,360.7,52.4,360,50.5,360z      M52.7,372.2c0,1.1-0.2,2-0.6,2.6c-0.4,0.6-0.9,0.9-1.6,0.9c-0.7,0-1.2-0.3-1.6-0.9c-0.4-0.6-0.6-1.5-0.6-2.6v-5.4     c0-1.1,0.2-2,0.6-2.6c0.4-0.6,0.9-0.9,1.6-0.9c0.7,0,1.2,0.3,1.6,0.9c0.4,0.6,0.6,1.4,0.6,2.6V372.2z" id="XMLID_1561_"/><polygon class="st8" id="XMLID_1562_" points="60.7,364 64.4,364 64.4,378.7 68.7,378.7 68.7,360 60.7,360.7    "/><path class="st8" d="M86.5,370.9c-0.5-0.7-1.3-1.3-2.3-1.6c0.9-0.4,1.6-1,2.1-1.7c0.5-0.7,0.8-1.5,0.8-2.3     c0-1.7-0.6-3-1.8-3.9c-1.2-0.9-2.8-1.4-4.8-1.4c-1.7,0-3.2,0.5-4.4,1.4c-1.2,0.9-1.8,2.1-1.7,3.6l0,0.1h4.2     c0-0.5,0.2-0.9,0.6-1.2c0.4-0.3,0.8-0.5,1.4-0.5c0.7,0,1.3,0.2,1.7,0.6c0.4,0.4,0.6,0.9,0.6,1.5c0,0.7-0.2,1.3-0.6,1.7     c-0.4,0.4-1,0.6-1.8,0.6h-2v3.2h2c0.9,0,1.5,0.2,2,0.6c0.5,0.4,0.7,1.1,0.7,2c0,0.6-0.2,1.2-0.7,1.6c-0.5,0.4-1.1,0.6-1.9,0.6     c-0.6,0-1.2-0.2-1.6-0.6c-0.4-0.4-0.6-0.9-0.6-1.5h-4.2l0,0.1c0,1.7,0.6,3,1.9,3.9c1.3,0.9,2.8,1.4,4.5,1.4c2,0,3.7-0.5,5-1.4     c1.3-1,1.9-2.3,1.9-4C87.3,372.5,87.1,371.6,86.5,370.9z" id="XMLID_1563_"/></g></g></g></svg>