<?xml version="1.0" encoding="utf-8"?><!DOCTYPE svg PUBLIC "-//W3C//DTD SVG 1.1//EN" "http://www.w3.org/Graphics/SVG/1.1/DTD/svg11.dtd"><svg version="1.1" id="Layer_2" xmlns="http://www.w3.org/2000/svg" xmlns:xlink="http://www.w3.org/1999/xlink" x="0px" y="0px" width="53px" height="42px" viewBox="0 0 53 42" enable-background="new 0 0 53 42" xml:space="preserve"><g><g opacity="0.49"><path fill="#222138" d="M49.344,3c0.542,0,1.25-0.042,1.25,0.5v34c0,0.542-0.708,1.5-1.25,1.5h-46c-0.542,0-0.75-0.958-0.75-1.5 v-34c0-0.542,0.208-0.5,0.75-0.5h46.25 M49.344,1h-46c-1.65,0-2.75,0.85-2.75,2.5v34c0,1.65,1.1,3.5,2.75,3.5h46 c1.65,0,3.25-1.85,3.25-3.5v-34C52.594,1.85,50.994,1,49.344,1L49.344,1z"/><circle fill="#222138" cx="38.094" cy="12.502" r="4.398"/><path fill="#222138" d="M50.594,26.972l-7.135-5.918c-1.076-0.888-2.726-0.854-3.749,0.084l-7.224,6.582L18.251,12.21 c-1.073-1.173-2.826-1.186-3.917-0.024L1.594,25.922V40h48.993c0.115,0,0.007-0.021,0.007-0.029V26.972z"/></g><g><g><g><path fill="#31D0C6" d="M49.344,2c0.542,0,1.25-0.042,1.25,0.5v34c0,0.542-0.708,1.5-1.25,1.5h-46c-0.542,0-0.75-0.958-0.75-1.5 v-34c0-0.542,0.208-0.5,0.75-0.5h46.25 M49.344,0h-46c-1.65,0-2.75,0.85-2.75,2.5v34c0,1.65,1.1,3.5,2.75,3.5h46 c1.65,0,3.25-1.85,3.25-3.5v-34C52.594,0.85,50.994,0,49.344,0L49.344,0z"/></g><circle fill="#31D0C6" cx="38.094" cy="11.502" r="4.398"/><path fill="#31D0C6" d="M50.594,25.972l-7.135-5.918c-1.076-0.888-2.726-0.854-3.749,0.084l-7.224,6.582L18.251,11.21 c-1.073-1.173-2.826-1.186-3.917-0.024L1.594,24.922V39h48.993c0.115,0,0.007-0.021,0.007-0.029V25.972z"/></g></g></g></svg> 