<svg xmlns="http://www.w3.org/2000/svg" viewBox="0 0 92 92">
  <defs>
    <style>
      .cls-1 {
        fill: #f6f6f6;
      }

      .cls-2 {
        fill: #8f8f8f;
      }
    </style>
  </defs>
  <g id="Group_70" data-name="Group 70" transform="translate(-11033 766)">
    <rect id="Rectangle_7" data-name="Rectangle 7" class="cls-1" width="92" height="92" rx="3" transform="translate(11033 -766)"/>
    <g id="Group_69" data-name="Group 69" transform="translate(-0.326 -0.326)">
      <rect id="Rectangle_44" data-name="Rectangle 44" class="cls-2" width="5.501" height="5.633" transform="translate(11048.072 -722.751) rotate(90)"/>
      <rect id="Rectangle_44-2" data-name="Rectangle 44" class="cls-2" width="5.501" height="5.633" transform="translate(11064.973 -722.751) rotate(90)"/>
      <rect id="Rectangle_44-3" data-name="Rectangle 44" class="cls-2" width="5.501" height="5.633" transform="translate(11081.873 -722.751) rotate(90)"/>
      <rect id="Rectangle_44-4" data-name="Rectangle 44" class="cls-2" width="5.501" height="5.633" transform="translate(11098.773 -722.751) rotate(90)"/>
      <rect id="Rectangle_44-5" data-name="Rectangle 44" class="cls-2" width="5.501" height="5.633" transform="translate(11056.522 -722.751) rotate(90)"/>
      <rect id="Rectangle_44-6" data-name="Rectangle 44" class="cls-2" width="5.501" height="5.633" transform="translate(11073.423 -722.751) rotate(90)"/>
      <rect id="Rectangle_44-7" data-name="Rectangle 44" class="cls-2" width="5.501" height="5.633" transform="translate(11090.323 -722.751) rotate(90)"/>
      <rect id="Rectangle_44-8" data-name="Rectangle 44" class="cls-2" width="5.501" height="5.633" transform="translate(11107.223 -722.751) rotate(90)"/>
      <rect id="Rectangle_44-9" data-name="Rectangle 44" class="cls-2" width="5.501" height="5.633" transform="translate(11115.674 -722.751) rotate(90)"/>
      <rect id="Rectangle_44-10" data-name="Rectangle 44" class="cls-2" width="5.501" height="5.633" transform="translate(11048.072 -756.674) rotate(90)"/>
      <rect id="Rectangle_44-11" data-name="Rectangle 44" class="cls-2" width="5.501" height="5.633" transform="translate(11064.973 -756.674) rotate(90)"/>
      <rect id="Rectangle_44-12" data-name="Rectangle 44" class="cls-2" width="5.501" height="5.633" transform="translate(11081.873 -756.674) rotate(90)"/>
      <rect id="Rectangle_44-13" data-name="Rectangle 44" class="cls-2" width="5.501" height="5.633" transform="translate(11098.773 -756.674) rotate(90)"/>
      <rect id="Rectangle_44-14" data-name="Rectangle 44" class="cls-2" width="5.501" height="5.633" transform="translate(11056.522 -756.674) rotate(90)"/>
      <rect id="Rectangle_44-15" data-name="Rectangle 44" class="cls-2" width="5.501" height="5.633" transform="translate(11073.423 -756.674) rotate(90)"/>
      <rect id="Rectangle_44-16" data-name="Rectangle 44" class="cls-2" width="5.501" height="5.633" transform="translate(11090.323 -756.674) rotate(90)"/>
      <rect id="Rectangle_44-17" data-name="Rectangle 44" class="cls-2" width="5.501" height="5.633" transform="translate(11107.223 -756.674) rotate(90)"/>
      <rect id="Rectangle_44-18" data-name="Rectangle 44" class="cls-2" width="5.501" height="5.633" transform="translate(11115.674 -756.674) rotate(90)"/>
      <rect id="Rectangle_44-19" data-name="Rectangle 44" class="cls-2" width="5.501" height="5.633" transform="translate(11048.072 -688.827) rotate(90)"/>
      <rect id="Rectangle_44-20" data-name="Rectangle 44" class="cls-2" width="5.501" height="5.633" transform="translate(11064.973 -688.827) rotate(90)"/>
      <rect id="Rectangle_44-21" data-name="Rectangle 44" class="cls-2" width="5.501" height="5.633" transform="translate(11081.873 -688.827) rotate(90)"/>
      <rect id="Rectangle_44-22" data-name="Rectangle 44" class="cls-2" width="5.501" height="5.633" transform="translate(11098.773 -688.827) rotate(90)"/>
      <rect id="Rectangle_44-23" data-name="Rectangle 44" class="cls-2" width="5.501" height="5.633" transform="translate(11056.522 -688.827) rotate(90)"/>
      <rect id="Rectangle_44-24" data-name="Rectangle 44" class="cls-2" width="5.501" height="5.633" transform="translate(11073.423 -688.827) rotate(90)"/>
      <rect id="Rectangle_44-25" data-name="Rectangle 44" class="cls-2" width="5.501" height="5.633" transform="translate(11090.323 -688.827) rotate(90)"/>
      <rect id="Rectangle_44-26" data-name="Rectangle 44" class="cls-2" width="5.501" height="5.633" transform="translate(11107.223 -688.827) rotate(90)"/>
      <rect id="Rectangle_44-27" data-name="Rectangle 44" class="cls-2" width="5.501" height="5.633" transform="translate(11115.674 -688.827) rotate(90)"/>
      <rect id="Rectangle_44-28" data-name="Rectangle 44" class="cls-2" width="5.501" height="5.633" transform="translate(11081.751 -751.04) rotate(180)"/>
      <rect id="Rectangle_44-29" data-name="Rectangle 44" class="cls-2" width="5.501" height="5.633" transform="translate(11081.751 -734.14) rotate(180)"/>
      <rect id="Rectangle_44-30" data-name="Rectangle 44" class="cls-2" width="5.501" height="5.633" transform="translate(11081.751 -717.24) rotate(180)"/>
      <rect id="Rectangle_44-31" data-name="Rectangle 44" class="cls-2" width="5.501" height="5.633" transform="translate(11081.751 -700.34) rotate(180)"/>
      <rect id="Rectangle_44-32" data-name="Rectangle 44" class="cls-2" width="5.501" height="5.633" transform="translate(11081.751 -742.59) rotate(180)"/>
      <rect id="Rectangle_44-33" data-name="Rectangle 44" class="cls-2" width="5.501" height="5.633" transform="translate(11081.751 -725.69) rotate(180)"/>
      <rect id="Rectangle_44-34" data-name="Rectangle 44" class="cls-2" width="5.501" height="5.633" transform="translate(11081.751 -708.789) rotate(180)"/>
      <rect id="Rectangle_44-35" data-name="Rectangle 44" class="cls-2" width="5.501" height="5.633" transform="translate(11081.751 -691.889) rotate(180)"/>
      <rect id="Rectangle_44-36" data-name="Rectangle 44" class="cls-2" width="5.501" height="5.633" transform="translate(11081.751 -683.439) rotate(180)"/>
      <rect id="Rectangle_44-37" data-name="Rectangle 44" class="cls-2" width="5.501" height="5.633" transform="translate(11047.827 -751.04) rotate(180)"/>
      <rect id="Rectangle_44-38" data-name="Rectangle 44" class="cls-2" width="5.501" height="5.633" transform="translate(11047.827 -734.14) rotate(180)"/>
      <rect id="Rectangle_44-39" data-name="Rectangle 44" class="cls-2" width="5.501" height="5.633" transform="translate(11047.827 -717.24) rotate(180)"/>
      <rect id="Rectangle_44-40" data-name="Rectangle 44" class="cls-2" width="5.501" height="5.633" transform="translate(11047.827 -700.34) rotate(180)"/>
      <rect id="Rectangle_44-41" data-name="Rectangle 44" class="cls-2" width="5.501" height="5.633" transform="translate(11047.827 -742.59) rotate(180)"/>
      <rect id="Rectangle_44-42" data-name="Rectangle 44" class="cls-2" width="5.501" height="5.633" transform="translate(11047.827 -725.69) rotate(180)"/>
      <rect id="Rectangle_44-43" data-name="Rectangle 44" class="cls-2" width="5.501" height="5.633" transform="translate(11047.827 -708.789) rotate(180)"/>
      <rect id="Rectangle_44-44" data-name="Rectangle 44" class="cls-2" width="5.501" height="5.633" transform="translate(11047.827 -691.889) rotate(180)"/>
      <rect id="Rectangle_44-45" data-name="Rectangle 44" class="cls-2" width="5.501" height="5.633" transform="translate(11047.827 -683.439) rotate(180)"/>
      <rect id="Rectangle_44-46" data-name="Rectangle 44" class="cls-2" width="5.501" height="5.633" transform="translate(11115.674 -751.04) rotate(180)"/>
      <rect id="Rectangle_44-47" data-name="Rectangle 44" class="cls-2" width="5.501" height="5.633" transform="translate(11115.674 -734.14) rotate(180)"/>
      <rect id="Rectangle_44-48" data-name="Rectangle 44" class="cls-2" width="5.501" height="5.633" transform="translate(11115.674 -717.24) rotate(180)"/>
      <rect id="Rectangle_44-49" data-name="Rectangle 44" class="cls-2" width="5.501" height="5.633" transform="translate(11115.674 -700.34) rotate(180)"/>
      <rect id="Rectangle_44-50" data-name="Rectangle 44" class="cls-2" width="5.501" height="5.633" transform="translate(11115.674 -742.59) rotate(180)"/>
      <rect id="Rectangle_44-51" data-name="Rectangle 44" class="cls-2" width="5.501" height="5.633" transform="translate(11115.674 -725.69) rotate(180)"/>
      <rect id="Rectangle_44-52" data-name="Rectangle 44" class="cls-2" width="5.501" height="5.633" transform="translate(11115.674 -708.789) rotate(180)"/>
      <rect id="Rectangle_44-53" data-name="Rectangle 44" class="cls-2" width="5.501" height="5.633" transform="translate(11115.674 -691.889) rotate(180)"/>
      <rect id="Rectangle_44-54" data-name="Rectangle 44" class="cls-2" width="5.501" height="5.633" transform="translate(11115.674 -683.439) rotate(180)"/>
    </g>
  </g>
</svg>
