<svg xmlns="http://www.w3.org/2000/svg" viewBox="0 0 92 92">
  <defs>
    <style>
      .cls-1 {
        fill: #f6f6f6;
      }

      .cls-2 {
        fill: #8f8f8f;
      }
    </style>
  </defs>
  <g id="Group_71" data-name="Group 71" transform="translate(-11134 766)">
    <rect id="Rectangle_7" data-name="Rectangle 7" class="cls-1" width="92" height="92" rx="3" transform="translate(11134 -766)"/>
    <g id="Group_68" data-name="Group 68" transform="translate(6)">
      <rect id="Rectangle_8" data-name="Rectangle 8" class="cls-2" width="10" height="10" transform="translate(11134 -760)"/>
      <rect id="Rectangle_24" data-name="Rectangle 24" class="cls-2" width="10" height="10" transform="translate(11134 -740)"/>
      <rect id="Rectangle_32" data-name="Rectangle 32" class="cls-2" width="10" height="10" transform="translate(11134 -720)"/>
      <rect id="Rectangle_40" data-name="Rectangle 40" class="cls-2" width="10" height="10" transform="translate(11134 -700)"/>
      <rect id="Rectangle_11" data-name="Rectangle 11" class="cls-2" width="10" height="10" transform="translate(11154 -760)"/>
      <rect id="Rectangle_23" data-name="Rectangle 23" class="cls-2" width="10" height="10" transform="translate(11154 -740)"/>
      <rect id="Rectangle_31" data-name="Rectangle 31" class="cls-2" width="10" height="10" transform="translate(11154 -720)"/>
      <rect id="Rectangle_39" data-name="Rectangle 39" class="cls-2" width="10" height="10" transform="translate(11154 -700)"/>
      <rect id="Rectangle_13" data-name="Rectangle 13" class="cls-2" width="10" height="10" transform="translate(11174 -760)"/>
      <rect id="Rectangle_22" data-name="Rectangle 22" class="cls-2" width="10" height="10" transform="translate(11174 -740)"/>
      <rect id="Rectangle_30" data-name="Rectangle 30" class="cls-2" width="10" height="10" transform="translate(11174 -720)"/>
      <rect id="Rectangle_38" data-name="Rectangle 38" class="cls-2" width="10" height="10" transform="translate(11174 -700)"/>
      <rect id="Rectangle_15" data-name="Rectangle 15" class="cls-2" width="10" height="10" transform="translate(11194 -760)"/>
      <rect id="Rectangle_21" data-name="Rectangle 21" class="cls-2" width="10" height="10" transform="translate(11194 -740)"/>
      <rect id="Rectangle_29" data-name="Rectangle 29" class="cls-2" width="10" height="10" transform="translate(11194 -720)"/>
      <rect id="Rectangle_37" data-name="Rectangle 37" class="cls-2" width="10" height="10" transform="translate(11194 -700)"/>
      <rect id="Rectangle_9" data-name="Rectangle 9" class="cls-2" width="10" height="10" transform="translate(11144 -750)"/>
      <rect id="Rectangle_17" data-name="Rectangle 17" class="cls-2" width="10" height="10" transform="translate(11144 -730)"/>
      <rect id="Rectangle_25" data-name="Rectangle 25" class="cls-2" width="10" height="10" transform="translate(11144 -710)"/>
      <rect id="Rectangle_33" data-name="Rectangle 33" class="cls-2" width="10" height="10" transform="translate(11144 -690)"/>
      <rect id="Rectangle_10" data-name="Rectangle 10" class="cls-2" width="10" height="10" transform="translate(11164 -750)"/>
      <rect id="Rectangle_18" data-name="Rectangle 18" class="cls-2" width="10" height="10" transform="translate(11164 -730)"/>
      <rect id="Rectangle_26" data-name="Rectangle 26" class="cls-2" width="10" height="10" transform="translate(11164 -710)"/>
      <rect id="Rectangle_34" data-name="Rectangle 34" class="cls-2" width="10" height="10" transform="translate(11164 -690)"/>
      <rect id="Rectangle_12" data-name="Rectangle 12" class="cls-2" width="10" height="10" transform="translate(11184 -750)"/>
      <rect id="Rectangle_19" data-name="Rectangle 19" class="cls-2" width="10" height="10" transform="translate(11184 -730)"/>
      <rect id="Rectangle_27" data-name="Rectangle 27" class="cls-2" width="10" height="10" transform="translate(11184 -710)"/>
      <rect id="Rectangle_35" data-name="Rectangle 35" class="cls-2" width="10" height="10" transform="translate(11184 -690)"/>
      <rect id="Rectangle_14" data-name="Rectangle 14" class="cls-2" width="10" height="10" transform="translate(11204 -750)"/>
      <rect id="Rectangle_20" data-name="Rectangle 20" class="cls-2" width="10" height="10" transform="translate(11204 -730)"/>
      <rect id="Rectangle_28" data-name="Rectangle 28" class="cls-2" width="10" height="10" transform="translate(11204 -710)"/>
      <rect id="Rectangle_36" data-name="Rectangle 36" class="cls-2" width="10" height="10" transform="translate(11204 -690)"/>
    </g>
  </g>
</svg>
